# Blender v2.92.0 OBJ File: 'box.blend'
# www.blender.org
mtllib box.mtl
o Cube.001
v 1.173029 -1.820757 -1.074716
v 1.173029 -0.155994 -1.074716
v 2.724315 -1.820757 -0.470606
v 2.724315 -0.155994 -0.470606
v 0.568920 -1.820757 0.476570
v 0.568920 -0.155994 0.476570
v 2.120205 -1.820757 1.080680
v 2.120205 -0.155994 1.080680
vt 0.625000 0.000000
vt 0.375000 0.250000
vt 0.375000 0.000000
vt 0.625000 0.250000
vt 0.375000 0.500000
vt 0.625000 0.500000
vt 0.375000 0.750000
vt 0.625000 0.750000
vt 0.375000 1.000000
vt 0.125000 0.750000
vt 0.125000 0.500000
vt 0.875000 0.500000
vt 0.625000 1.000000
vt 0.875000 0.750000
vn 0.3629 0.0000 -0.9318
vn 0.9318 0.0000 0.3629
vn -0.3629 0.0000 0.9318
vn -0.9318 0.0000 -0.3629
vn 0.0000 -1.0000 0.0000
vn 0.0000 1.0000 0.0000
usemtl Material
s off
f 2/1/1 3/2/1 1/3/1
f 4/4/2 7/5/2 3/2/2
f 8/6/3 5/7/3 7/5/3
f 6/8/4 1/9/4 5/7/4
f 7/5/5 1/10/5 3/11/5
f 4/12/6 6/8/6 8/6/6
f 2/1/1 4/4/1 3/2/1
f 4/4/2 8/6/2 7/5/2
f 8/6/3 6/8/3 5/7/3
f 6/8/4 2/13/4 1/9/4
f 7/5/5 5/7/5 1/10/5
f 4/12/6 2/14/6 6/8/6
o Cube.002
v -2.629945 -1.885577 -0.538251
v -2.629945 2.029912 -0.538251
v -1.595768 -1.885577 -1.842825
v -1.595768 2.029912 -1.842825
v -1.325371 -1.885577 0.495926
v -1.325371 2.029912 0.495926
v -0.291194 -1.885577 -0.808648
v -0.291194 2.029912 -0.808648
vt 0.625000 0.000000
vt 0.375000 0.250000
vt 0.375000 0.000000
vt 0.625000 0.250000
vt 0.375000 0.500000
vt 0.625000 0.500000
vt 0.375000 0.750000
vt 0.625000 0.750000
vt 0.375000 1.000000
vt 0.125000 0.750000
vt 0.125000 0.500000
vt 0.875000 0.500000
vt 0.625000 1.000000
vt 0.875000 0.750000
vn -0.7836 0.0000 -0.6212
vn 0.6212 0.0000 -0.7836
vn 0.7836 0.0000 0.6212
vn -0.6212 0.0000 0.7836
vn 0.0000 -1.0000 -0.0000
vn 0.0000 1.0000 0.0000
usemtl Material.001
s off
f 10/15/7 11/16/7 9/17/7
f 12/18/8 15/19/8 11/16/8
f 16/20/9 13/21/9 15/19/9
f 14/22/10 9/23/10 13/21/10
f 15/19/11 9/24/11 11/25/11
f 12/26/12 14/22/12 16/20/12
f 10/15/7 12/18/7 11/16/7
f 12/18/8 16/20/8 15/19/8
f 16/20/9 14/22/9 13/21/9
f 14/22/10 10/27/10 9/23/10
f 15/19/11 13/21/11 9/24/11
f 12/26/12 10/28/12 14/22/12
o Cube_Cube.003
v -2.957096 -1.745087 3.045639
v -2.957096 4.178873 3.045639
v -2.957096 -1.745087 -2.878321
v -2.957096 4.178873 -2.878321
v 2.966864 -1.745087 3.045639
v 2.966864 4.178873 3.045639
v 2.966864 -1.745087 -2.878321
v 2.966864 4.178873 -2.878321
vt 0.375000 0.250000
vt 0.625000 0.000000
vt 0.375000 0.000000
vt 0.375000 0.500000
vt 0.625000 0.250000
vt 0.375000 0.750000
vt 0.625000 0.500000
vt 0.125000 0.750000
vt 0.125000 0.500000
vt 0.625000 0.750000
vt 0.875000 0.500000
vt 0.875000 0.750000
vn 1.0000 0.0000 0.0000
vn 0.0000 0.0000 1.0000
vn -1.0000 0.0000 0.0000
vn 0.0000 1.0000 0.0000
vn 0.0000 -1.0000 0.0000
usemtl None
s off
f 19/29/13 18/30/13 17/31/13
f 23/32/14 20/33/14 19/29/14
f 21/34/15 24/35/15 23/32/15
f 17/36/16 23/32/16 19/37/16
f 22/38/17 20/39/17 24/35/17
f 19/29/13 20/33/13 18/30/13
f 23/32/14 24/35/14 20/33/14
f 21/34/15 22/38/15 24/35/15
f 17/36/16 21/34/16 23/32/16
f 22/38/17 18/40/17 20/39/17
