# Blender v2.92.0 OBJ File: 'box.blend'
# www.blender.org
mtllib box.mtl
o Cube.001
v 1.173029 -2.117002 -1.074716
v 1.173029 -0.155994 -1.074716
v 2.724315 -2.117002 -0.470606
v 2.724315 -0.155994 -0.470606
v 0.568920 -2.117002 0.476570
v 0.568920 -0.155994 0.476570
v 2.120205 -2.117002 1.080680
v 2.120205 -0.155994 1.080680
vt 0.625000 0.000000
vt 0.375000 0.250000
vt 0.375000 0.000000
vt 0.625000 0.250000
vt 0.375000 0.500000
vt 0.625000 0.500000
vt 0.375000 0.750000
vt 0.625000 0.750000
vt 0.375000 1.000000
vt 0.125000 0.750000
vt 0.125000 0.500000
vt 0.875000 0.500000
vt 0.625000 1.000000
vt 0.875000 0.750000
vn 0.3629 0.0000 -0.9318
vn 0.9318 0.0000 0.3629
vn -0.3629 0.0000 0.9318
vn -0.9318 0.0000 -0.3629
vn 0.0000 -1.0000 0.0000
vn 0.0000 1.0000 0.0000
usemtl White
s off
f 2/1/1 3/2/1 1/3/1
f 4/4/2 7/5/2 3/2/2
f 8/6/3 5/7/3 7/5/3
f 6/8/4 1/9/4 5/7/4
f 7/5/5 1/10/5 3/11/5
f 4/12/6 6/8/6 8/6/6
f 2/1/1 4/4/1 3/2/1
f 4/4/2 8/6/2 7/5/2
f 8/6/3 6/8/3 5/7/3
f 6/8/4 2/13/4 1/9/4
f 7/5/5 5/7/5 1/10/5
f 4/12/6 2/14/6 6/8/6
o Cube.002
v -2.629945 -2.181822 -0.538251
v -2.629945 2.029912 -0.538251
v -1.595768 -2.181822 -1.842825
v -1.595768 2.029912 -1.842825
v -1.325371 -2.181822 0.495926
v -1.325371 2.029912 0.495926
v -0.291194 -2.181822 -0.808648
v -0.291194 2.029912 -0.808648
vt 0.625000 0.000000
vt 0.375000 0.250000
vt 0.375000 0.000000
vt 0.625000 0.250000
vt 0.375000 0.500000
vt 0.625000 0.500000
vt 0.375000 0.750000
vt 0.625000 0.750000
vt 0.375000 1.000000
vt 0.125000 0.750000
vt 0.125000 0.500000
vt 0.875000 0.500000
vt 0.625000 1.000000
vt 0.875000 0.750000
vn -0.7836 0.0000 -0.6212
vn 0.6212 0.0000 -0.7836
vn 0.7836 0.0000 0.6212
vn -0.6212 0.0000 0.7836
vn 0.0000 -1.0000 -0.0000
vn 0.0000 1.0000 0.0000
usemtl White
s off
f 10/15/7 11/16/7 9/17/7
f 12/18/8 15/19/8 11/16/8
f 16/20/9 13/21/9 15/19/9
f 14/22/10 9/23/10 13/21/10
f 15/19/11 9/24/11 11/25/11
f 12/26/12 14/22/12 16/20/12
f 10/15/7 12/18/7 11/16/7
f 12/18/8 16/20/8 15/19/8
f 16/20/9 14/22/9 13/21/9
f 14/22/10 10/27/10 9/23/10
f 15/19/11 13/21/11 9/24/11
f 12/26/12 10/28/12 14/22/12
o Cube_Cube.003
v -2.868437 -2.145439 3.013995
v -2.868437 4.238273 3.013995
v -2.868437 -2.145439 -2.909964
v -2.868437 4.238273 -2.909964
v 3.055523 -2.145439 3.013995
v 3.055523 4.238273 3.013995
v 3.055523 -2.145439 -2.909964
v 3.055523 4.238273 -2.909964
vt 0.375000 0.250000
vt 0.625000 0.000000
vt 0.375000 0.000000
vt 0.625000 0.250000
vt 0.375000 0.500000
vt 0.125000 0.750000
vt 0.125000 0.500000
vt 0.625000 0.750000
vt 0.875000 0.500000
vt 0.625000 0.500000
vt 0.375000 0.750000
vt 0.875000 0.750000
vn 1.0000 0.0000 0.0000
vn 0.0000 0.0000 1.0000
vn 0.0000 1.0000 0.0000
vn 0.0000 -1.0000 0.0000
vn -1.0000 0.0000 0.0000
usemtl Red
s off
f 19/29/13 18/30/13 17/31/13
f 19/29/13 20/32/13 18/30/13
usemtl White
f 23/33/14 20/32/14 19/29/14
f 17/34/15 23/33/15 19/35/15
f 22/36/16 20/37/16 24/38/16
f 23/33/14 24/38/14 20/32/14
f 17/34/15 21/39/15 23/33/15
f 22/36/16 18/40/16 20/37/16
usemtl Green
f 21/39/17 24/38/17 23/33/17
f 21/39/17 22/36/17 24/38/17
o Title_Text
v 2.394375 3.781741 -2.801527
v 2.241654 3.781741 -2.801527
v 2.241654 2.905261 -2.801527
v 1.474735 3.781741 -2.801527
v 1.345254 3.781741 -2.801527
v 1.345254 2.649621 -2.801527
v 1.497974 2.649621 -2.801527
v 1.497974 3.521121 -2.801527
v 2.254935 2.649621 -2.801527
v 2.394375 2.649621 -2.801527
v 1.096255 3.781741 -2.801527
v 0.933575 3.781741 -2.801527
v 0.933575 2.649621 -2.801527
v 1.096255 2.649621 -2.801527
v 0.807415 3.781741 -2.801527
v 0.646394 3.781741 -2.801527
v 0.307754 2.986601 -2.801527
v -0.032546 3.781741 -2.801527
v -0.195226 3.781741 -2.801527
v 0.294474 2.639661 -2.801527
v 0.327674 2.639661 -2.801527
v -0.258306 3.781741 -2.801527
v -0.900726 3.781741 -2.801527
v -0.900726 2.649621 -2.801527
v -0.243366 2.649621 -2.801527
v -0.243366 2.795701 -2.801527
v -0.738046 2.795701 -2.801527
v -0.738046 3.147621 -2.801527
v -0.274906 3.147621 -2.801527
v -0.274906 3.293701 -2.801527
v -0.738046 3.293701 -2.801527
v -0.738046 3.635661 -2.801527
v -0.258306 3.635661 -2.801527
v -1.641086 3.245561 -2.801527
v -1.148066 3.781741 -2.801527
v -1.350586 3.781741 -2.801527
v -1.827006 3.263821 -2.801527
v -1.827006 3.781741 -2.801527
v -1.989686 3.781741 -2.801527
v -1.989686 2.649621 -2.801527
v -1.827006 2.649621 -2.801527
v -1.827006 3.209041 -2.801527
v -1.250986 2.649621 -2.801527
v -1.026886 2.649621 -2.801527
vt 0.555556 0.000000
vt 0.333333 0.000000
vt 0.444444 0.000000
vt 0.777778 0.000000
vt 0.222222 0.000000
vt 0.000000 0.000000
vt 0.111111 0.000000
vt 1.000000 0.000000
vt 0.666667 0.000000
vt 0.888889 0.000000
vt 0.666667 0.000000
vt 0.000000 0.000000
vt 0.333333 0.000000
vt 1.000000 0.000000
vt 0.833333 0.000000
vt 0.500000 0.000000
vt 0.666667 0.000000
vt 0.333333 0.000000
vt 0.000000 0.000000
vt 0.166667 0.000000
vt 1.000000 0.000000
vt 0.181818 0.000000
vt 0.909091 0.000000
vt 0.090909 0.000000
vt 0.000000 0.000000
vt 1.000000 0.000000
vt 0.818182 0.000000
vt 0.545455 0.000000
vt 0.727273 0.000000
vt 0.636364 0.000000
vt 0.454545 0.000000
vt 0.363636 0.000000
vt 0.272727 0.000000
vt 0.600000 0.000000
vt 0.400000 0.000000
vt 0.500000 0.000000
vt 0.300000 0.000000
vt 0.100000 0.000000
vt 0.200000 0.000000
vt 0.000000 0.000000
vt 0.800000 0.000000
vt 1.000000 0.000000
vt 0.700000 0.000000
vt 0.900000 0.000000
vn 0.0000 0.0000 1.0000
usemtl Black
s off
f 30/41/18 28/42/18 29/43/18
f 30/41/18 32/44/18 28/42/18
f 32/44/18 27/45/18 28/42/18
f 27/45/18 25/46/18 26/47/18
f 27/45/18 34/48/18 25/46/18
f 30/41/18 31/49/18 32/44/18
f 33/50/18 27/45/18 32/44/18
f 33/50/18 34/48/18 27/45/18
f 37/51/18 35/52/18 36/53/18
f 37/51/18 38/54/18 35/52/18
f 44/55/18 42/56/18 43/57/18
f 44/55/18 41/58/18 42/56/18
f 41/58/18 39/59/18 40/60/18
f 41/58/18 45/61/18 39/59/18
f 44/55/18 45/61/18 41/58/18
f 48/62/18 56/63/18 47/64/18
f 56/63/18 46/65/18 47/64/18
f 56/63/18 57/66/18 46/65/18
f 48/62/18 55/67/18 56/63/18
f 48/62/18 52/68/18 55/67/18
f 52/68/18 54/69/18 55/67/18
f 52/68/18 53/70/18 54/69/18
f 48/62/18 51/71/18 52/68/18
f 48/62/18 50/72/18 51/71/18
f 48/62/18 49/73/18 50/72/18
f 64/74/18 62/75/18 63/76/18
f 64/74/18 61/77/18 62/75/18
f 61/77/18 59/78/18 60/79/18
f 61/77/18 58/80/18 59/78/18
f 64/74/18 66/81/18 61/77/18
f 66/81/18 58/80/18 61/77/18
f 66/81/18 68/82/18 58/80/18
f 64/74/18 65/83/18 66/81/18
f 67/84/18 68/82/18 66/81/18
